<svg viewBox="0 0 256 256" xmlns="http://www.w3.org/2000/svg" fill-rule="evenodd" clip-rule="evenodd"><path d="M217.28550637.09524805H38.71645363c-21.33566739 0-38.63150307 17.29583568-38.63150307 38.63150307v178.54836915c0 21.33566739 17.29583568 38.63041446 38.63150307 38.63041446h178.56796413c21.33566739 0 38.63150307-17.29583568 38.63150307-38.63041446V38.72783973C255.91700944 17.39217234 238.62008515.09524805 217.28550637.09524805zM77.49383044 214.83010221V99.1424289h-38.4497052v115.68767331h38.4497052zm59.73529653-99.31824474V99.1424289H98.77289011c.51055809 10.8534417 0 115.68767331 0 115.68767331h38.45623686v-64.60464906c0-3.45960258.2503803-6.91485072 1.26823065-9.38490681 2.77268967-6.9126735 9.10404543-14.0648412 19.72343598-14.0648412 13.91679024 0 19.47849873 10.61177028 19.47849873 26.16147552v61.89292155h38.44861659v-66.33553896c0-35.53549623-18.96576342-52.0682163-44.26832565-52.0682163-20.39075391 0-29.54052096 11.2017969-34.6504563 19.08551052v.4027857h-.25908918c.08491158-.13389903.17200038-.26888667.25908918-.4027857zM58.27659811 83.3466978c13.39861188 0 21.75151641-8.88414621 21.75151641-19.9868796-.24820308-11.34984786-8.35290453-19.98796821-21.5000475-19.98796821-13.15802907 0-21.75478224 8.63812035-21.75478224 19.98796821 0 11.10273339 8.34092982 19.9868796 21.2496672 19.9868796h.25364613z"/></svg>
